<?xml version="1.0" encoding="UTF-8" standalone="no"?>
<svg
   xmlns:dc="http://purl.org/dc/elements/1.1/"
   xmlns:cc="http://creativecommons.org/ns#"
   xmlns:rdf="http://www.w3.org/1999/02/22-rdf-syntax-ns#"
   xmlns:svg="http://www.w3.org/2000/svg"
   xmlns="http://www.w3.org/2000/svg"
   xmlns:sodipodi="http://sodipodi.sourceforge.net/DTD/sodipodi-0.dtd"
   xmlns:inkscape="http://www.inkscape.org/namespaces/inkscape"
   width="137.86833mm"
   height="135.31526mm"
   viewBox="0 0 137.86833 135.31526"
   version="1.1"
   id="svg8"
   inkscape:version="1.0.2 (e86c870, 2021-01-15)"
   sodipodi:docname="icon.svg"
   inkscape:export-filename="C:\Users\A92937102\Repositories\working-hours\images\icon.png"
   inkscape:export-xdpi="202.72659"
   inkscape:export-ydpi="202.72659">
  <defs
     id="defs2" />
  <sodipodi:namedview
     id="base"
     pagecolor="#ffffff"
     bordercolor="#666666"
     borderopacity="1.0"
     inkscape:pageopacity="0.0"
     inkscape:pageshadow="2"
     inkscape:zoom="0.81848695"
     inkscape:cx="-381.428"
     inkscape:cy="254.24076"
     inkscape:document-units="px"
     inkscape:current-layer="layer1"
     inkscape:document-rotation="0"
     showgrid="false"
     inkscape:snap-grids="true"
     inkscape:snap-page="false"
     inkscape:snap-object-midpoints="true"
     inkscape:snap-center="false"
     inkscape:window-width="2560"
     inkscape:window-height="1027"
     inkscape:window-x="1072"
     inkscape:window-y="239"
     inkscape:window-maximized="1"
     fit-margin-top="0"
     fit-margin-left="0"
     fit-margin-right="0"
     fit-margin-bottom="0" />
  <metadata
     id="metadata5">
    <rdf:RDF>
      <cc:Work
         rdf:about="">
        <dc:format>image/svg+xml</dc:format>
        <dc:type
           rdf:resource="http://purl.org/dc/dcmitype/StillImage" />
        <dc:title></dc:title>
      </cc:Work>
    </rdf:RDF>
  </metadata>
  <g
     inkscape:label="Ebene 1"
     inkscape:groupmode="layer"
     id="layer1"
     transform="translate(0.71319422,0.78454851)">
    <path
       id="rect869"
       style="opacity:0.999;fill:#000000;stroke:#bebebe;stroke-width:10;stroke-linecap:butt;stroke-linejoin:round;stroke-miterlimit:4;stroke-dasharray:none;stroke-opacity:1;paint-order:stroke fill markers"
       d="M 255.53906,4 A 238.57141,238.57141 0 0 0 16.96875,242.57227 238.57141,238.57141 0 0 0 75.664062,399.29102 L 0,505.42773 h 79.574219 l 45.158201,-63.34375 a 238.57141,238.57141 0 0 0 130.80664,39.0586 238.57141,238.57141 0 0 0 130.8086,-39.0586 l 45.15625,63.34375 h 79.57421 L 435.41406,399.29102 A 238.57141,238.57141 0 0 0 494.11133,242.57227 238.57141,238.57141 0 0 0 255.53906,4 Z"
       transform="matrix(0.26458334,0,0,0.26458334,0.60959804,-0.51996517)" />
    <path
       style="opacity:0.999;fill:#ffcc00;fill-opacity:1;stroke:none;stroke-width:2.07291;stroke-miterlimit:4;stroke-dasharray:none;stroke-opacity:1"
       id="path859"
       transform="rotate(-90)"
       sodipodi:type="arc"
       sodipodi:cx="-63.660389"
       sodipodi:cy="68.221039"
       sodipodi:rx="54.138847"
       sodipodi:ry="54.138847"
       sodipodi:start="0"
       sodipodi:end="4.1739811"
       sodipodi:arc-type="slice"
       d="M -9.5215416,68.221039 A 54.138847,54.138847 0 0 1 -53.996203,121.49034 54.138847,54.138847 0 0 1 -114.34898,87.238969 54.138847,54.138847 0 0 1 -91.421153,21.741422 l 27.760764,46.479617 z" />
    <circle
       style="opacity:0.999;fill:#000000;fill-opacity:1;stroke:none;stroke-width:3.90254;stroke-miterlimit:4;stroke-dasharray:none;stroke-opacity:1"
       id="path855"
       cx="68.221039"
       cy="63.660389"
       r="39.772652" />
  </g>
</svg>
